<?xml version="1.0" encoding="utf-8" standalone="no"?><!DOCTYPE svg PUBLIC "-//W3C//DTD SVG 20010904//EN" "http://www.w3.org/TR/2001/REC-SVG-20010904/DTD/svg10.dtd"><svg xmlns="http://www.w3.org/2000/svg" width="614" height="825" xmlns:xlink="http://www.w3.org/1999/xlink"><source><![CDATA[Created with Raphaël 2.1.2源代码 *.c预处理器编译器汇编目标代码 *.o库代码库代码启动代码启动代码链接器可执行文件yesnoyesno]]></source><desc style="-webkit-tap-highlight-color: rgba(0, 0, 0, 0);">Created with Raphaël 2.1.2</desc><defs style="-webkit-tap-highlight-color: rgba(0, 0, 0, 0);"><path stroke-linecap="round" d="M5,0 0,2.5 5,5z" id="raphael-marker-block-obj37" style="-webkit-tap-highlight-color: rgba(0, 0, 0, 0);"></path><marker id="raphael-marker-endblock33-obj38" markerHeight="3" markerWidth="3" orient="auto" refX="1.5" refY="1.5" style="-webkit-tap-highlight-color: rgba(0, 0, 0, 0);"><use xlink:href="#raphael-marker-block-obj37" transform="rotate(180 1.5 1.5) scale(0.6,0.6)" stroke-width="1.6667" fill="black" stroke="none" style="-webkit-tap-highlight-color: rgba(0, 0, 0, 0);"></use></marker></defs><rect x="0" y="0" width="86.671875" height="36.5" r="20" rx="20" ry="20" fill="#ffffff" stroke="#000000" style="-webkit-tap-highlight-color: rgba(0, 0, 0, 0);" stroke-width="2" class="flowchart" id="st" transform="matrix(1,0,0,1,28.1641,19.5)"></rect><text x="10" y="18.25" text-anchor="start" font="10px &quot;Arial&quot;" stroke="none" fill="#000000" style="-webkit-tap-highlight-color: rgba(0, 0, 0, 0); text-anchor: start; font: 15px Arial;" id="stt" class="flowchartt" font-size="15px" transform="matrix(1,0,0,1,28.1641,19.5)" stroke-width="1"><tspan dy="5.25" style="-webkit-tap-highlight-color: rgba(0, 0, 0, 0);">源代码 *.c</tspan></text><rect x="0" y="0" width="80" height="36.5" r="0" rx="0" ry="0" fill="#ffffff" stroke="#000000" style="-webkit-tap-highlight-color: rgba(0, 0, 0, 0);" stroke-width="2" class="flowchart" id="pre" transform="matrix(1,0,0,1,31.5,125.5)"></rect><text x="10" y="18.25" text-anchor="start" font="10px &quot;Arial&quot;" stroke="none" fill="#000000" style="-webkit-tap-highlight-color: rgba(0, 0, 0, 0); text-anchor: start; font: 15px Arial;" id="pret" class="flowchartt" font-size="15px" transform="matrix(1,0,0,1,31.5,125.5)" stroke-width="1"><tspan dy="5.25" style="-webkit-tap-highlight-color: rgba(0, 0, 0, 0);">预处理器</tspan></text><rect x="0" y="0" width="65" height="36.5" r="0" rx="0" ry="0" fill="#ffffff" stroke="#000000" style="-webkit-tap-highlight-color: rgba(0, 0, 0, 0);" stroke-width="2" class="flowchart" id="com" transform="matrix(1,0,0,1,39,231.5)"></rect><text x="10" y="18.25" text-anchor="start" font="10px &quot;Arial&quot;" stroke="none" fill="#000000" style="-webkit-tap-highlight-color: rgba(0, 0, 0, 0); text-anchor: start; font: 15px Arial;" id="comt" class="flowchartt" font-size="15px" transform="matrix(1,0,0,1,39,231.5)" stroke-width="1"><tspan dy="5.25" style="-webkit-tap-highlight-color: rgba(0, 0, 0, 0);">编译器</tspan></text><rect x="0" y="0" width="50" height="36.5" r="0" rx="0" ry="0" fill="#ffffff" stroke="#000000" style="-webkit-tap-highlight-color: rgba(0, 0, 0, 0);" stroke-width="2" class="flowchart" id="assembly" transform="matrix(1,0,0,1,46.5,337.5)"></rect><text x="10" y="18.25" text-anchor="start" font="10px &quot;Arial&quot;" stroke="none" fill="#000000" style="-webkit-tap-highlight-color: rgba(0, 0, 0, 0); text-anchor: start; font: 15px Arial;" id="assemblyt" class="flowchartt" font-size="15px" transform="matrix(1,0,0,1,46.5,337.5)" stroke-width="1"><tspan dy="5.25" style="-webkit-tap-highlight-color: rgba(0, 0, 0, 0);">汇编</tspan></text><rect x="0" y="0" width="102.5" height="36.5" r="0" rx="0" ry="0" fill="#ffffff" stroke="#000000" style="-webkit-tap-highlight-color: rgba(0, 0, 0, 0);" stroke-width="2" class="flowchart" id="target_code" transform="matrix(1,0,0,1,20.25,443.5)"></rect><text x="10" y="18.25" text-anchor="start" font="10px &quot;Arial&quot;" stroke="none" fill="#000000" style="-webkit-tap-highlight-color: rgba(0, 0, 0, 0); text-anchor: start; font: 15px Arial;" id="target_codet" class="flowchartt" font-size="15px" transform="matrix(1,0,0,1,20.25,443.5)" stroke-width="1"><tspan dy="5.25" style="-webkit-tap-highlight-color: rgba(0, 0, 0, 0);">目标代码 *.o</tspan></text><path fill="#ffffff" stroke="#000000" d="M28.125,14.0625L0,28.125L56.25,56.25L112.5,28.125L56.25,0L0,28.125" stroke-width="2" id="cond1" class="flowchart" style="-webkit-tap-highlight-color: rgba(0, 0, 0, 0);" transform="matrix(1,0,0,1,188,433.625)"></path><text x="33.125" y="28.125" text-anchor="start" font="10px &quot;Arial&quot;" stroke="none" fill="#000000" style="-webkit-tap-highlight-color: rgba(0, 0, 0, 0); text-anchor: start; font: 15px Arial;" id="cond1t" class="flowchartt" font-size="15px" transform="matrix(1,0,0,1,188,433.625)" stroke-width="1"><tspan dy="5.25" style="-webkit-tap-highlight-color: rgba(0, 0, 0, 0);">库代码</tspan></text><rect x="0" y="0" width="65" height="36.5" r="0" rx="0" ry="0" fill="#ffffff" stroke="#000000" style="-webkit-tap-highlight-color: rgba(0, 0, 0, 0);" stroke-width="2" class="flowchart" id="lib" transform="matrix(1,0,0,1,211.75,559.375)"></rect><text x="10" y="18.25" text-anchor="start" font="10px &quot;Arial&quot;" stroke="none" fill="#000000" style="-webkit-tap-highlight-color: rgba(0, 0, 0, 0); text-anchor: start; font: 15px Arial;" id="libt" class="flowchartt" font-size="15px" transform="matrix(1,0,0,1,211.75,559.375)" stroke-width="1"><tspan dy="5.25" style="-webkit-tap-highlight-color: rgba(0, 0, 0, 0);">库代码</tspan></text><path fill="#ffffff" stroke="#000000" d="M33.75,16.875L0,33.75L67.5,67.5L135,33.75L67.5,0L0,33.75" stroke-width="2" id="cond2" class="flowchart" style="-webkit-tap-highlight-color: rgba(0, 0, 0, 0);" transform="matrix(1,0,0,1,330.75,543.875)"></path><text x="38.75" y="33.75" text-anchor="start" font="10px &quot;Arial&quot;" stroke="none" fill="#000000" style="-webkit-tap-highlight-color: rgba(0, 0, 0, 0); text-anchor: start; font: 15px Arial;" id="cond2t" class="flowchartt" font-size="15px" transform="matrix(1,0,0,1,330.75,543.875)" stroke-width="1"><tspan dy="5.25" style="-webkit-tap-highlight-color: rgba(0, 0, 0, 0);">启动代码</tspan><tspan dy="18" x="38.75" style="-webkit-tap-highlight-color: rgba(0, 0, 0, 0);"></tspan></text><rect x="0" y="0" width="80" height="36.5" r="0" rx="0" ry="0" fill="#ffffff" stroke="#000000" style="-webkit-tap-highlight-color: rgba(0, 0, 0, 0);" stroke-width="2" class="flowchart" id="init" transform="matrix(1,0,0,1,358.25,680.875)"></rect><text x="10" y="18.25" text-anchor="start" font="10px &quot;Arial&quot;" stroke="none" fill="#000000" style="-webkit-tap-highlight-color: rgba(0, 0, 0, 0); text-anchor: start; font: 15px Arial;" id="initt" class="flowchartt" font-size="15px" transform="matrix(1,0,0,1,358.25,680.875)" stroke-width="1"><tspan dy="5.25" style="-webkit-tap-highlight-color: rgba(0, 0, 0, 0);">启动代码</tspan></text><path fill="#ffffff" stroke="#000000" d="M10,18.25L0,36.5L85,36.5L105,0L20,0L10,18.25" stroke-width="2" id="link" class="flowchart" style="-webkit-tap-highlight-color: rgba(0, 0, 0, 0);" transform="matrix(1,0,0,1,507.25,680.875)"></path><text x="30" y="18.25" text-anchor="start" font="10px &quot;Arial&quot;" stroke="none" fill="#000000" style="-webkit-tap-highlight-color: rgba(0, 0, 0, 0); text-anchor: start; font: 15px Arial;" id="linkt" class="flowchartt" font-size="15px" transform="matrix(1,0,0,1,507.25,680.875)" stroke-width="1"><tspan dy="5.25" style="-webkit-tap-highlight-color: rgba(0, 0, 0, 0);">链接器</tspan></text><rect x="0" y="0" width="95" height="36.5" r="20" rx="20" ry="20" fill="#ffffff" stroke="#000000" style="-webkit-tap-highlight-color: rgba(0, 0, 0, 0);" stroke-width="2" class="flowchart" id="e" transform="matrix(1,0,0,1,512.25,786.875)"></rect><text x="10" y="18.25" text-anchor="start" font="10px &quot;Arial&quot;" stroke="none" fill="#000000" style="-webkit-tap-highlight-color: rgba(0, 0, 0, 0); text-anchor: start; font: 15px Arial;" id="et" class="flowchartt" font-size="15px" transform="matrix(1,0,0,1,512.25,786.875)" stroke-width="1"><tspan dy="5.25" style="-webkit-tap-highlight-color: rgba(0, 0, 0, 0);">可执行文件</tspan></text><path fill="none" stroke="#000000" d="M71.5,56C71.5,56,71.5,109.15156686306,71.5,122.4913644058397" stroke-width="2" marker-end="url(#raphael-marker-endblock33-obj38)" style="-webkit-tap-highlight-color: rgba(0, 0, 0, 0);"></path><path fill="none" stroke="#000000" d="M71.5,162C71.5,162,71.5,215.15156686306,71.5,228.4913644058397" stroke-width="2" marker-end="url(#raphael-marker-endblock33-obj38)" style="-webkit-tap-highlight-color: rgba(0, 0, 0, 0);"></path><path fill="none" stroke="#000000" d="M71.5,268C71.5,268,71.5,321.15156686306,71.5,334.4913644058397" stroke-width="2" marker-end="url(#raphael-marker-endblock33-obj38)" style="-webkit-tap-highlight-color: rgba(0, 0, 0, 0);"></path><path fill="none" stroke="#000000" d="M71.5,374C71.5,374,71.5,427.15156686306,71.5,440.4913644058397" stroke-width="2" marker-end="url(#raphael-marker-endblock33-obj38)" style="-webkit-tap-highlight-color: rgba(0, 0, 0, 0);"></path><path fill="none" stroke="#000000" d="M122.75,461.75C122.75,461.75,172.20649081468582,461.75,185.00528970715823,461.75" stroke-width="2" marker-end="url(#raphael-marker-endblock33-obj38)" style="-webkit-tap-highlight-color: rgba(0, 0, 0, 0);"></path><path fill="none" stroke="#000000" d="M244.25,489.875C244.25,489.875,244.25,543.02656686306,244.25,556.3663644058397" stroke-width="2" marker-end="url(#raphael-marker-endblock33-obj38)" style="-webkit-tap-highlight-color: rgba(0, 0, 0, 0);"></path><text x="249.25" y="499.875" text-anchor="start" font="10px &quot;Arial&quot;" stroke="none" fill="#000000" style="-webkit-tap-highlight-color: rgba(0, 0, 0, 0); text-anchor: start; font: 15px Arial;" font-size="15px" stroke-width="1"><tspan dy="5.171875" style="-webkit-tap-highlight-color: rgba(0, 0, 0, 0);">yes</tspan></text><path fill="none" stroke="#000000" d="M300.5,461.75C300.5,461.75,398.25,461.75,398.25,461.75C398.25,461.75,398.25,526.1092665493488,398.25,540.8792154156545" stroke-width="2" marker-end="url(#raphael-marker-endblock33-obj38)" style="-webkit-tap-highlight-color: rgba(0, 0, 0, 0);"></path><text x="305.5" y="451.75" text-anchor="start" font="10px &quot;Arial&quot;" stroke="none" fill="#000000" style="-webkit-tap-highlight-color: rgba(0, 0, 0, 0); text-anchor: start; font: 15px Arial;" font-size="15px" stroke-width="1"><tspan dy="5.25" style="-webkit-tap-highlight-color: rgba(0, 0, 0, 0);">no</tspan></text><path fill="none" stroke="#000000" d="M276.75,577.625C276.75,577.625,316.40409994125366,577.625,327.75043908460066,577.625" stroke-width="2" marker-end="url(#raphael-marker-endblock33-obj38)" style="-webkit-tap-highlight-color: rgba(0, 0, 0, 0);"></path><path fill="none" stroke="#000000" d="M398.25,611.375C398.25,611.375,398.25,664.52656686306,398.25,677.8663644058397" stroke-width="2" marker-end="url(#raphael-marker-endblock33-obj38)" style="-webkit-tap-highlight-color: rgba(0, 0, 0, 0);"></path><text x="403.25" y="621.375" text-anchor="start" font="10px &quot;Arial&quot;" stroke="none" fill="#000000" style="-webkit-tap-highlight-color: rgba(0, 0, 0, 0); text-anchor: start; font: 15px Arial;" font-size="15px" stroke-width="1"><tspan dy="5.171875" style="-webkit-tap-highlight-color: rgba(0, 0, 0, 0);">yes</tspan></text><path fill="none" stroke="#000000" d="M465.75,577.625C465.75,577.625,559.75,577.625,559.75,577.625C559.75,577.625,559.75,660.8767965435982,559.75,677.8686182990787" stroke-width="2" marker-end="url(#raphael-marker-endblock33-obj38)" style="-webkit-tap-highlight-color: rgba(0, 0, 0, 0);"></path><text x="470.75" y="567.625" text-anchor="start" font="10px &quot;Arial&quot;" stroke="none" fill="#000000" style="-webkit-tap-highlight-color: rgba(0, 0, 0, 0); text-anchor: start; font: 15px Arial;" font-size="15px" stroke-width="1"><tspan dy="5.25" style="-webkit-tap-highlight-color: rgba(0, 0, 0, 0);">no</tspan></text><path fill="none" stroke="#000000" d="M438.25,699.125C438.25,699.125,499.81927490234375,699.125,514.2495737075806,699.125" stroke-width="2" marker-end="url(#raphael-marker-endblock33-obj38)" style="-webkit-tap-highlight-color: rgba(0, 0, 0, 0);"></path><path fill="none" stroke="#000000" d="M559.75,717.375C559.75,717.375,559.75,770.52656686306,559.75,783.8663644058397" stroke-width="2" marker-end="url(#raphael-marker-endblock33-obj38)" style="-webkit-tap-highlight-color: rgba(0, 0, 0, 0);"></path></svg>